# Blender v2.76 (sub 0) OBJ File: 'OfficeInterior.blend'
# www.blender.org
mtllib OfficeInterior.mtl
o OfficeHall1Ceiling_Plane.005
v 6.117600 3.759200 1.000000
v 8.928401 3.759200 1.000000
v 6.117600 3.759200 5.676404
v 8.928401 3.759200 5.676404
v 8.928401 3.759200 -1.000000
v 4.000000 3.759200 1.000000
v -1.000000 3.759200 1.000000
v -1.000000 3.759200 -1.000000
v 6.117600 3.759200 -1.000000
v 4.000000 3.759200 -1.000000
vn 0.000000 1.000000 0.000000
usemtl Material.004
s off
f 2//1 1//1 3//1 4//1
f 1//1 2//1 5//1 9//1
f 6//1 10//1 8//1 7//1
f 1//1 9//1 10//1 6//1
o Plane.002_Plane.004
v 6.117600 0.711200 5.676404
v 8.928401 0.711200 5.676404
v 6.117600 3.759200 5.676404
v 8.928401 3.759200 5.676404
vn 0.000000 0.000000 1.000000
usemtl Material.001
s off
f 11//2 12//2 14//2 13//2
o OfficeHall1Walls_Plane.001
v 5.000000 0.177800 1.000000
v 5.000000 0.177800 -1.000000
v 5.279400 0.177800 1.000000
v 5.279400 0.177800 -1.000000
v 5.279400 0.355600 1.000000
v 5.558800 0.355600 1.000000
v 5.558800 0.355600 -1.000000
v 5.558800 0.533400 1.000000
v 5.838200 0.533400 1.000000
v 5.838200 0.533400 -1.000000
v 5.838200 0.711200 -1.000000
v 6.117600 0.711200 1.000000
v 6.117600 0.711200 5.676404
v 8.928401 0.711200 5.676404
v 6.117600 3.759200 1.000000
v 8.928401 3.759200 1.000000
v 6.117600 3.759200 5.676404
v 8.928401 3.759200 5.676404
v 8.928401 3.759200 -1.000000
v 4.000000 3.759200 1.000000
v -1.000000 3.759200 1.000000
v -1.000000 3.759200 -1.000000
v 4.000000 0.000000 1.000000
v 4.000000 0.000000 -1.000000
v -1.000000 0.000000 1.000000
v -1.000000 0.000000 -1.000000
v 5.838200 0.711200 1.000000
v 5.279400 0.355600 -1.000000
v 5.558800 0.533400 -1.000000
v 6.117600 3.759200 -1.000000
v 4.000000 3.759200 -1.000000
v 8.928401 0.711200 1.000000
v 8.928401 0.711200 -1.000000
v 6.117600 0.711200 -1.000000
v 5.000000 0.000000 1.000000
v 5.000000 0.000000 -1.000000
v 4.000000 1.879600 1.000000
v 4.000000 1.879600 -1.000000
vn -1.000000 0.000000 0.000000
vn 0.000000 0.000000 1.000000
vn 0.000000 0.000000 -1.000000
vn 1.000000 0.000000 0.000000
usemtl Material.002
s off
f 26//3 27//3 31//3 29//3
f 34//4 35//4 39//4 37//4 51//4
f 35//3 36//3 40//3 39//3
f 36//5 45//5 52//5 38//5 40//5
f 44//5 33//5 47//5 48//5
f 33//6 30//6 46//6 47//6
f 28//6 46//6 30//6 32//6
f 26//4 51//4 41//4
f 23//4 41//4 51//4
f 23//4 51//4 22//4
f 22//4 51//4 20//4
f 20//4 51//4 19//4
f 19//4 51//4 17//4
f 17//4 51//4 15//4
f 51//4 49//4 15//4
f 49//4 51//4 37//4
f 29//4 51//4 26//4
f 51//4 29//4 34//4
f 25//5 52//5 48//5
f 24//5 52//5 25//5
f 43//5 52//5 24//5
f 43//5 21//5 52//5
f 42//5 52//5 21//5
f 42//5 18//5 52//5
f 16//5 52//5 18//5
f 50//5 52//5 16//5
f 52//5 50//5 38//5
f 44//5 48//5 52//5
f 45//5 44//5 52//5
o OfficeHall1Floor_Plane.002
v 6.117600 0.711200 5.676404
v 8.928401 0.711200 5.676404
v 5.000000 0.000000 1.000000
v 5.000000 0.000000 -1.000000
v -1.000000 0.000000 1.000000
v -1.000000 0.000000 -1.000000
v 5.000000 0.177800 1.000000
v 5.000000 0.177800 -1.000000
v 5.279400 0.177800 1.000000
v 5.279400 0.177800 -1.000000
v 5.279400 0.355600 1.000000
v 5.279400 0.355600 -1.000000
v 5.558800 0.355600 1.000000
v 5.558800 0.355600 -1.000000
v 5.558800 0.533400 1.000000
v 5.558800 0.533400 -1.000000
v 5.838200 0.533400 1.000000
v 5.838200 0.533400 -1.000000
v 5.838200 0.711200 1.000000
v 5.838200 0.711200 -1.000000
v 6.117600 0.711200 1.000000
v 6.117600 0.711200 -1.000000
v 8.928401 0.711200 1.000000
v 8.928401 0.711200 -1.000000
v 4.720600 0.000000 1.000000
v 4.720600 0.000000 -1.000000
vn 0.000000 1.000000 0.000000
vn -1.000000 0.000000 0.000000
usemtl Material.000
s off
f 55//7 56//7 78//7 77//7
f 56//8 55//8 59//8 60//8
f 60//7 59//7 61//7 62//7
f 62//8 61//8 63//8 64//8
f 64//7 63//7 65//7 66//7
f 66//8 65//8 67//8 68//8
f 68//7 67//7 69//7 70//7
f 70//8 69//8 71//8 72//8
f 72//7 71//7 73//7 74//7
f 74//7 73//7 75//7 76//7
f 54//7 75//7 73//7 53//7
f 57//7 77//7 78//7 58//7
