# Blender v2.76 (sub 0) OBJ File: 'OfficeInteriorWalkmesh.blend'
# www.blender.org
mtllib OfficeInteriorWalkmesh.mtl
o OfficeHall1Floor_Plane
v 6.117600 0.711200 5.676404
v 8.928401 0.711200 5.676404
v -1.000000 0.000000 1.000000
v -1.000000 0.000000 -1.000000
v 6.117600 0.711200 1.000000
v 6.117600 0.711200 -1.000000
v 8.928401 0.711200 1.000000
v 8.928401 0.711200 -1.000000
v 4.720600 0.000000 1.000000
v 4.720600 0.000000 -1.000000
v 4.860300 0.000000 1.000000
v 4.860300 0.000000 -1.000000
v 5.977900 0.711200 -1.000000
v 5.977900 0.711200 1.000000
vn 0.000000 1.000000 0.000000
vn -0.536900 0.843700 0.000000
usemtl Material.003
s off
f 11//1 12//1 10//1 9//1
f 13//1 14//1 5//1 6//1
f 6//1 5//1 7//1 8//1
f 2//1 7//1 5//1 1//1
f 3//1 9//1 10//1 4//1
f 13//2 12//2 11//2 14//2
