# Blender v2.76 (sub 0) OBJ File: 'OfficeInterior.blend'
# www.blender.org
mtllib OfficeInterior.mtl
o OfficeHall1Ceiling_Plane.005
v 6.117600 3.759200 1.000000
v 8.928401 3.759200 1.000000
v 6.117600 3.759200 5.676404
v 8.928401 3.759200 5.676404
v 8.928401 3.759200 -1.000000
v 4.000000 3.759200 1.000000
v -1.000000 3.759200 1.000000
v -1.000000 3.759200 -1.000000
v 6.117600 3.759200 -1.000000
v 4.000000 3.759200 -1.000000
vn 0.000000 1.000000 0.000000
usemtl Material.004
s off
f 2//1 1//1 3//1 4//1
f 1//1 2//1 5//1 9//1
f 6//1 10//1 8//1 7//1
f 1//1 9//1 10//1 6//1
o Plane.002_Plane.004
v 6.117600 0.711200 5.676404
v 8.928401 0.711200 5.676404
v 6.117600 3.759200 5.676404
v 8.928401 3.759200 5.676404
vn 0.000000 0.000000 1.000000
usemtl Material.001
s off
f 11//2 12//2 14//2 13//2
o OfficeHall1Walls_Plane.001
v 5.000000 0.177800 1.000000
v 5.000000 0.177800 -1.000000
v 5.279400 0.177800 1.000000
v 5.279400 0.177800 -1.000000
v 5.279400 0.355600 1.000000
v 5.558800 0.355600 1.000000
v 5.558800 0.355600 -1.000000
v 5.558800 0.533400 1.000000
v 5.838200 0.533400 1.000000
v 5.838200 0.533400 -1.000000
v 5.838200 0.711200 -1.000000
v 6.117600 0.711200 1.000000
v 6.117600 0.711200 5.676404
v 8.928401 0.711200 5.676404
v 6.117600 3.759200 1.000000
v 8.928401 3.759200 1.000000
v 6.117600 3.759200 5.676404
v 8.928401 3.759200 5.676404
v 8.928401 3.759200 -1.000000
v 4.000000 3.759200 1.000000
v -1.000000 3.759200 1.000000
v -1.000000 3.759200 -1.000000
v 4.000000 0.000000 1.000000
v 4.000000 0.000000 -1.000000
v -1.000000 0.000000 1.000000
v -1.000000 0.000000 -1.000000
v 5.838200 0.711200 1.000000
v 5.279400 0.355600 -1.000000
v 5.558800 0.533400 -1.000000
v 6.117600 3.759200 -1.000000
v 4.000000 3.759200 -1.000000
v 8.928401 0.711200 1.000000
v 8.928401 0.711200 -1.000000
v 6.117600 0.711200 -1.000000
v 5.000000 0.000000 1.000000
v 5.000000 0.000000 -1.000000
v 4.000000 0.711200 1.000000
v 4.000000 0.711200 -1.000000
v 5.058800 2.235200 1.000000
v 5.058800 2.235200 -1.000000
vt 0.543244 0.031718
vt 0.921334 0.031718
vt 0.921334 0.296491
vt 0.543244 0.296491
vt 0.407706 0.623045
vt 0.003453 0.623045
vt 0.003453 0.296491
vt 0.407706 0.296491
vt 0.407706 0.358272
vt 0.993819 0.949807
vt 0.806951 0.949807
vt 0.806951 0.622900
vt 0.993819 0.622900
vt 0.806170 0.949599
vt 0.401917 0.949599
vt 0.401917 0.684825
vt 0.401917 0.623045
vt 0.806170 0.623045
vt 0.230708 0.949598
vt 0.003453 0.949598
vt 0.003453 0.684825
vt 0.230708 0.684825
vt 0.381543 0.296491
vt 0.381543 0.031718
vt 0.003453 0.031718
vt 0.556325 0.342827
vt 0.556325 0.358272
vt 0.533736 0.342827
vt 0.533736 0.327382
vt 0.511146 0.327382
vt 0.511146 0.311936
vt 0.488557 0.311936
vt 0.488557 0.296491
vt 0.493311 0.490658
vt 0.253298 0.669380
vt 0.253298 0.684825
vt 0.275887 0.669380
vt 0.275887 0.653935
vt 0.298477 0.653935
vt 0.298477 0.638490
vt 0.321067 0.638490
vt 0.321067 0.623045
vt 0.578915 0.623045
vt 0.316313 0.817212
vt 0.578915 0.358272
vn -1.000000 0.000000 0.000000
vn 0.000000 0.000000 1.000000
vn 0.000000 0.000000 -1.000000
vn 1.000000 0.000000 0.000000
usemtl Material.002
s off
f 26/1/3 27/2/3 31/3/3 29/4/3
f 34/5/4 35/6/4 39/7/4 37/8/4 51/9/4
f 35/10/3 36/11/3 40/12/3 39/13/3
f 36/14/5 45/15/5 52/16/5 38/17/5 40/18/5
f 44/19/5 33/20/5 47/21/5 48/22/5
f 33/4/6 30/23/6 46/24/6 47/1/6
f 28/25/6 46/24/6 30/23/6 32/7/6
f 23/26/4 41/27/4 51/9/4
f 23/26/4 51/9/4 22/28/4
f 22/28/4 51/9/4 20/29/4
f 20/29/4 51/9/4 19/30/4
f 19/30/4 51/9/4 17/31/4
f 17/31/4 51/9/4 15/32/4
f 51/9/4 49/33/4 15/32/4
f 49/33/4 51/9/4 37/8/4
f 51/9/4 53/34/4 34/5/4
f 24/35/5 52/16/5 25/36/5
f 43/37/5 52/16/5 24/35/5
f 43/37/5 21/38/5 52/16/5
f 42/39/5 52/16/5 21/38/5
f 42/39/5 18/40/5 52/16/5
f 16/41/5 52/16/5 18/40/5
f 50/42/5 52/16/5 16/41/5
f 52/16/5 50/42/5 38/17/5
f 34/5/4 53/34/4 29/43/4
f 45/15/5 44/19/5 54/44/5
f 52/16/5 45/15/5 54/44/5
f 25/36/5 54/44/5 48/22/5
f 52/16/5 54/44/5 25/36/5
f 44/19/5 48/22/5 54/44/5
f 29/43/4 53/34/4 26/45/4
f 26/45/4 53/34/4 41/27/4
f 51/9/4 41/27/4 53/34/4
o OfficeHall1Floor_Plane.002
v 6.117600 0.711200 5.676404
v 8.928401 0.711200 5.676404
v -1.000000 0.000000 1.000000
v -1.000000 0.000000 -1.000000
v 6.117600 0.711200 1.000000
v 6.117600 0.711200 -1.000000
v 8.928401 0.711200 1.000000
v 8.928401 0.711200 -1.000000
v 4.720600 0.000000 1.000000
v 4.720600 0.000000 -1.000000
v 5.006000 0.177800 1.000000
v 5.000000 0.171800 1.000000
v 5.000000 0.171800 -1.000000
v 5.006000 0.177800 -1.000000
v 5.285400 0.355600 1.000000
v 5.279400 0.349600 1.000000
v 5.279400 0.349600 -1.000000
v 5.285400 0.355600 -1.000000
v 5.564800 0.533400 1.000000
v 5.558800 0.527400 1.000000
v 5.558800 0.527400 -1.000000
v 5.564800 0.533400 -1.000000
v 5.844200 0.711200 1.000000
v 5.838200 0.705200 1.000000
v 5.838200 0.705200 -1.000000
v 5.844200 0.711200 -1.000000
v 5.000000 0.004000 1.000000
v 4.996000 0.000000 1.000000
v 4.996000 0.000000 -1.000000
v 5.000000 0.004000 -1.000000
v 5.279400 0.181800 1.000000
v 5.275400 0.177800 1.000000
v 5.275400 0.177800 -1.000000
v 5.279400 0.181800 -1.000000
v 5.558800 0.359600 1.000000
v 5.554800 0.355600 1.000000
v 5.554800 0.355600 -1.000000
v 5.558800 0.359600 -1.000000
v 5.838200 0.537400 1.000000
v 5.834200 0.533400 1.000000
v 5.834200 0.533400 -1.000000
v 5.838200 0.537400 -1.000000
vt 0.999322 0.299562
vt 0.999322 0.599125
vt 0.970896 0.599125
vt 0.970896 0.299562
vt 0.939082 0.299562
vt 0.939082 0.599125
vt 0.910656 0.599125
vt 0.910656 0.299562
vt 0.863324 0.299562
vt 0.863324 0.000000
vt 0.908961 0.000000
vt 0.908961 0.299562
vt 0.891750 0.599125
vt 0.891750 0.898687
vt 0.863324 0.898687
vt 0.863324 0.599125
vt 0.908961 0.599125
vt 0.969202 0.299562
vt 0.969202 0.599125
vt 0.940776 0.599125
vt 0.940776 0.299562
vt 0.001016 1.000000
vt 0.001016 0.700438
vt 0.047332 0.700438
vt 0.047332 1.000000
vt 0.523496 0.700438
vt 0.523496 1.000000
vt 0.523497 0.000000
vt 0.047332 0.000000
vt 0.523497 0.898687
vt 0.523497 0.041849
vt 0.862307 0.041849
vt 0.862307 0.898687
vt 0.969880 0.599125
vt 0.969880 0.299562
vt 0.909639 0.599125
vt 0.909639 0.299562
vt 0.862307 0.599125
vt 0.939759 0.599125
vt 0.939759 0.299562
vt 0.955955 0.000000
vt 0.955955 0.299562
vt 0.910317 0.299562
vt 0.910317 0.000000
vt 0.862307 0.000599
vt 0.523497 0.000599
vt 0.862307 0.000000
vt 0.909639 0.000000
vn -1.000000 0.000000 0.000000
vn 0.000000 1.000000 0.000000
vn -0.707100 0.707100 0.000000
usemtl Material.000
s off
f 84/46/7 81/47/7 66/48/7 67/49/7
f 88/50/7 85/51/7 70/52/7 71/53/7
f 72/54/8 69/55/8 90/56/8 91/57/8
f 92/58/7 89/59/7 74/60/7 75/61/7
f 76/61/8 73/54/8 94/57/8 95/62/8
f 96/63/7 93/64/7 78/65/7 79/66/7
f 80/67/8 77/68/8 59/69/8 60/70/8
f 60/70/8 59/69/8 61/71/8 62/72/8
f 56/73/8 61/71/8 59/69/8 55/74/8
f 57/75/8 63/76/8 64/77/8 58/78/8
f 67/49/9 66/48/9 65/79/9 68/80/9
f 71/53/9 70/52/9 69/81/9 72/82/9
f 75/61/9 74/60/9 73/78/9 76/83/9
f 79/66/9 78/65/9 77/84/9 80/85/9
f 68/86/8 65/87/8 86/88/8 87/89/8
f 83/90/9 82/91/9 81/73/9 84/92/9
f 87/89/9 86/88/9 85/82/9 88/93/9
f 91/57/9 90/56/9 89/93/9 92/82/9
f 95/62/9 94/57/9 93/82/9 96/81/9
f 82/91/8 83/90/8 64/77/8 63/76/8
