# Blender v2.79 (sub 0) OBJ File: 'shader-test.blend'
# www.blender.org
mtllib shader-test.mtl
o cone6invisibleWithVertexColorAndTextureOverlay_Cone.005
v 0.000000 0.000000 -9.003043
v 0.000000 2.000000 -8.003043
v 0.195090 0.000000 -8.983829
v 0.382683 0.000000 -8.926923
v 0.555570 0.000000 -8.834513
v 0.707107 0.000000 -8.710150
v 0.831470 0.000000 -8.558614
v 0.923880 0.000000 -8.385727
v 0.980785 0.000000 -8.198133
v 1.000000 0.000000 -8.003043
v 0.980785 0.000000 -7.807953
v 0.923880 0.000000 -7.620360
v 0.831470 0.000000 -7.447473
v 0.707107 0.000000 -7.295937
v 0.555570 0.000000 -7.171574
v 0.382683 0.000000 -7.079164
v 0.195090 0.000000 -7.022258
v -0.000000 0.000000 -7.003043
v -0.195091 0.000000 -7.022258
v -0.382684 0.000000 -7.079164
v -0.555571 0.000000 -7.171574
v -0.707107 0.000000 -7.295937
v -0.831470 0.000000 -7.447474
v -0.923880 0.000000 -7.620360
v -0.980785 0.000000 -7.807954
v -1.000000 0.000000 -8.003044
v -0.980785 0.000000 -8.198134
v -0.923879 0.000000 -8.385728
v -0.831469 0.000000 -8.558615
v -0.707106 0.000000 -8.710151
v -0.555569 0.000000 -8.834514
v -0.382682 0.000000 -8.926924
v -0.195089 0.000000 -8.983829
vt 0.270317 0.599579
vt 0.299839 0.299839
vt 0.329361 0.599579
vt 0.387270 0.588060
vt 0.441819 0.565465
vt 0.490912 0.532662
vt 0.532662 0.490912
vt 0.565465 0.441819
vt 0.588060 0.387270
vt 0.599579 0.329361
vt 0.599579 0.270317
vt 0.588060 0.212408
vt 0.565465 0.157859
vt 0.532662 0.108766
vt 0.490912 0.067016
vt 0.441819 0.034214
vt 0.387270 0.011619
vt 0.329361 0.000100
vt 0.270317 0.000100
vt 0.212408 0.011619
vt 0.157859 0.034214
vt 0.108767 0.067016
vt 0.067017 0.108767
vt 0.034214 0.157859
vt 0.011619 0.212409
vt 0.000100 0.270318
vt 0.000100 0.329361
vt 0.011619 0.387270
vt 0.034214 0.441819
vt 0.067017 0.490912
vt 0.108767 0.532662
vt 0.157860 0.565465
vt 0.212409 0.588060
vt 0.219865 0.599779
vt 0.258516 0.607467
vt 0.294925 0.622548
vt 0.327692 0.644442
vt 0.355558 0.672308
vt 0.377453 0.705075
vt 0.392534 0.741483
vt 0.400222 0.780135
vt 0.400222 0.819543
vt 0.392534 0.858194
vt 0.377453 0.894603
vt 0.355559 0.927370
vt 0.327693 0.955236
vt 0.294926 0.977130
vt 0.258517 0.992212
vt 0.219866 0.999900
vt 0.180457 0.999900
vt 0.141805 0.992212
vt 0.105396 0.977131
vt 0.072630 0.955236
vt 0.044763 0.927370
vt 0.022869 0.894603
vt 0.007788 0.858194
vt 0.000100 0.819543
vt 0.000100 0.780134
vt 0.007788 0.741483
vt 0.022869 0.705075
vt 0.044764 0.672308
vt 0.072630 0.644442
vt 0.105397 0.622548
vt 0.141806 0.607467
vt 0.180457 0.599779
vn 0.0878 0.4455 -0.8910
vn 0.2599 0.4455 -0.8567
vn 0.4220 0.4455 -0.7896
vn 0.5680 0.4455 -0.6921
vn 0.6921 0.4455 -0.5680
vn 0.7896 0.4455 -0.4220
vn 0.8567 0.4455 -0.2599
vn 0.8910 0.4455 -0.0878
vn 0.8910 0.4455 0.0878
vn 0.8567 0.4455 0.2599
vn 0.7896 0.4455 0.4220
vn 0.6921 0.4455 0.5680
vn 0.5680 0.4455 0.6921
vn 0.4220 0.4455 0.7896
vn 0.2599 0.4455 0.8567
vn 0.0878 0.4455 0.8910
vn -0.0878 0.4455 0.8910
vn -0.2599 0.4455 0.8567
vn -0.4220 0.4455 0.7896
vn -0.5680 0.4455 0.6921
vn -0.6921 0.4455 0.5680
vn -0.7896 0.4455 0.4220
vn -0.8567 0.4455 0.2599
vn -0.8910 0.4455 0.0878
vn -0.8910 0.4455 -0.0878
vn -0.8567 0.4455 -0.2599
vn -0.7896 0.4455 -0.4220
vn -0.6921 0.4455 -0.5680
vn -0.5680 0.4455 -0.6921
vn -0.4220 0.4455 -0.7896
vn -0.2599 0.4455 -0.8567
vn -0.0878 0.4455 -0.8910
vn 0.0000 -1.0000 0.0000
usemtl Material.006
s off
f 1/1/1 2/2/1 3/3/1
f 3/3/2 2/2/2 4/4/2
f 4/4/3 2/2/3 5/5/3
f 5/5/4 2/2/4 6/6/4
f 6/6/5 2/2/5 7/7/5
f 7/7/6 2/2/6 8/8/6
f 8/8/7 2/2/7 9/9/7
f 9/9/8 2/2/8 10/10/8
f 10/10/9 2/2/9 11/11/9
f 11/11/10 2/2/10 12/12/10
f 12/12/11 2/2/11 13/13/11
f 13/13/12 2/2/12 14/14/12
f 14/14/13 2/2/13 15/15/13
f 15/15/14 2/2/14 16/16/14
f 16/16/15 2/2/15 17/17/15
f 17/17/16 2/2/16 18/18/16
f 18/18/17 2/2/17 19/19/17
f 19/19/18 2/2/18 20/20/18
f 20/20/19 2/2/19 21/21/19
f 21/21/20 2/2/20 22/22/20
f 22/22/21 2/2/21 23/23/21
f 23/23/22 2/2/22 24/24/22
f 24/24/23 2/2/23 25/25/23
f 25/25/24 2/2/24 26/26/24
f 26/26/25 2/2/25 27/27/25
f 27/27/26 2/2/26 28/28/26
f 28/28/27 2/2/27 29/29/27
f 29/29/28 2/2/28 30/30/28
f 30/30/29 2/2/29 31/31/29
f 31/31/30 2/2/30 32/32/30
f 32/32/31 2/2/31 33/33/31
f 33/33/32 2/2/32 1/1/32
f 1/34/33 3/35/33 4/36/33 5/37/33 6/38/33 7/39/33 8/40/33 9/41/33 10/42/33 11/43/33 12/44/33 13/45/33 14/46/33 15/47/33 16/48/33 17/49/33 18/50/33 19/51/33 20/52/33 21/53/33 22/54/33 23/55/33 24/56/33 25/57/33 26/58/33 27/59/33 28/60/33 29/61/33 30/62/33 31/63/33 32/64/33 33/65/33
o cone5redWithTextureOverlay_Cone.004
v 0.000000 0.000000 -6.003043
v 0.000000 2.000000 -5.003043
v 0.195090 0.000000 -5.983829
v 0.382683 0.000000 -5.926923
v 0.555570 0.000000 -5.834513
v 0.707107 0.000000 -5.710150
v 0.831470 0.000000 -5.558613
v 0.923880 0.000000 -5.385726
v 0.980785 0.000000 -5.198133
v 1.000000 0.000000 -5.003043
v 0.980785 0.000000 -4.807953
v 0.923880 0.000000 -4.620360
v 0.831470 0.000000 -4.447473
v 0.707107 0.000000 -4.295937
v 0.555570 0.000000 -4.171574
v 0.382683 0.000000 -4.079164
v 0.195090 0.000000 -4.022258
v -0.000000 0.000000 -4.003043
v -0.195091 0.000000 -4.022258
v -0.382684 0.000000 -4.079164
v -0.555571 0.000000 -4.171574
v -0.707107 0.000000 -4.295937
v -0.831470 0.000000 -4.447474
v -0.923880 0.000000 -4.620360
v -0.980785 0.000000 -4.807954
v -1.000000 0.000000 -5.003044
v -0.980785 0.000000 -5.198134
v -0.923879 0.000000 -5.385728
v -0.831469 0.000000 -5.558614
v -0.707106 0.000000 -5.710151
v -0.555569 0.000000 -5.834514
v -0.382682 0.000000 -5.926923
v -0.195089 0.000000 -5.983829
vt 0.270317 0.599579
vt 0.299839 0.299839
vt 0.329361 0.599579
vt 0.387270 0.588060
vt 0.441819 0.565465
vt 0.490912 0.532662
vt 0.532662 0.490912
vt 0.565465 0.441819
vt 0.588060 0.387270
vt 0.599579 0.329361
vt 0.599579 0.270317
vt 0.588060 0.212408
vt 0.565465 0.157859
vt 0.532662 0.108766
vt 0.490912 0.067016
vt 0.441819 0.034214
vt 0.387270 0.011619
vt 0.329361 0.000100
vt 0.270317 0.000100
vt 0.212408 0.011619
vt 0.157859 0.034214
vt 0.108767 0.067016
vt 0.067017 0.108767
vt 0.034214 0.157859
vt 0.011619 0.212409
vt 0.000100 0.270318
vt 0.000100 0.329361
vt 0.011619 0.387270
vt 0.034214 0.441819
vt 0.067017 0.490912
vt 0.108767 0.532662
vt 0.157860 0.565465
vt 0.212409 0.588060
vt 0.219865 0.599779
vt 0.258516 0.607467
vt 0.294925 0.622548
vt 0.327692 0.644442
vt 0.355558 0.672308
vt 0.377453 0.705075
vt 0.392534 0.741483
vt 0.400222 0.780135
vt 0.400222 0.819543
vt 0.392534 0.858194
vt 0.377453 0.894603
vt 0.355559 0.927370
vt 0.327693 0.955236
vt 0.294926 0.977130
vt 0.258517 0.992212
vt 0.219866 0.999900
vt 0.180457 0.999900
vt 0.141805 0.992212
vt 0.105396 0.977131
vt 0.072630 0.955236
vt 0.044763 0.927370
vt 0.022869 0.894603
vt 0.007788 0.858194
vt 0.000100 0.819543
vt 0.000100 0.780134
vt 0.007788 0.741483
vt 0.022869 0.705075
vt 0.044764 0.672308
vt 0.072630 0.644442
vt 0.105397 0.622548
vt 0.141806 0.607467
vt 0.180457 0.599779
vn 0.0878 0.4455 -0.8910
vn 0.2599 0.4455 -0.8567
vn 0.4220 0.4455 -0.7896
vn 0.5680 0.4455 -0.6921
vn 0.6921 0.4455 -0.5680
vn 0.7896 0.4455 -0.4220
vn 0.8567 0.4455 -0.2599
vn 0.8910 0.4455 -0.0878
vn 0.8910 0.4455 0.0878
vn 0.8567 0.4455 0.2599
vn 0.7896 0.4455 0.4220
vn 0.6921 0.4455 0.5680
vn 0.5680 0.4455 0.6921
vn 0.4220 0.4455 0.7896
vn 0.2599 0.4455 0.8567
vn 0.0878 0.4455 0.8910
vn -0.0878 0.4455 0.8910
vn -0.2599 0.4455 0.8567
vn -0.4220 0.4455 0.7896
vn -0.5680 0.4455 0.6921
vn -0.6921 0.4455 0.5680
vn -0.7896 0.4455 0.4220
vn -0.8567 0.4455 0.2599
vn -0.8910 0.4455 0.0878
vn -0.8910 0.4455 -0.0878
vn -0.8567 0.4455 -0.2599
vn -0.7896 0.4455 -0.4220
vn -0.6921 0.4455 -0.5680
vn -0.5680 0.4455 -0.6921
vn -0.4220 0.4455 -0.7896
vn -0.2599 0.4455 -0.8567
vn -0.0878 0.4455 -0.8910
vn 0.0000 -1.0000 0.0000
usemtl Material.005
s off
f 34/66/34 35/67/34 36/68/34
f 36/68/35 35/67/35 37/69/35
f 37/69/36 35/67/36 38/70/36
f 38/70/37 35/67/37 39/71/37
f 39/71/38 35/67/38 40/72/38
f 40/72/39 35/67/39 41/73/39
f 41/73/40 35/67/40 42/74/40
f 42/74/41 35/67/41 43/75/41
f 43/75/42 35/67/42 44/76/42
f 44/76/43 35/67/43 45/77/43
f 45/77/44 35/67/44 46/78/44
f 46/78/45 35/67/45 47/79/45
f 47/79/46 35/67/46 48/80/46
f 48/80/47 35/67/47 49/81/47
f 49/81/48 35/67/48 50/82/48
f 50/82/49 35/67/49 51/83/49
f 51/83/50 35/67/50 52/84/50
f 52/84/51 35/67/51 53/85/51
f 53/85/52 35/67/52 54/86/52
f 54/86/53 35/67/53 55/87/53
f 55/87/54 35/67/54 56/88/54
f 56/88/55 35/67/55 57/89/55
f 57/89/56 35/67/56 58/90/56
f 58/90/57 35/67/57 59/91/57
f 59/91/58 35/67/58 60/92/58
f 60/92/59 35/67/59 61/93/59
f 61/93/60 35/67/60 62/94/60
f 62/94/61 35/67/61 63/95/61
f 63/95/62 35/67/62 64/96/62
f 64/96/63 35/67/63 65/97/63
f 65/97/64 35/67/64 66/98/64
f 66/98/65 35/67/65 34/66/65
f 34/99/66 36/100/66 37/101/66 38/102/66 39/103/66 40/104/66 41/105/66 42/106/66 43/107/66 44/108/66 45/109/66 46/110/66 47/111/66 48/112/66 49/113/66 50/114/66 51/115/66 52/116/66 53/117/66 54/118/66 55/119/66 56/120/66 57/121/66 58/122/66 59/123/66 60/124/66 61/125/66 62/126/66 63/127/66 64/128/66 65/129/66 66/130/66
o cone4invisibleWithTextureOverlay_Cone.003
v 0.000000 0.000000 -3.029106
v 0.000000 2.000000 -2.029106
v 0.195090 0.000000 -3.009892
v 0.382683 0.000000 -2.952986
v 0.555570 0.000000 -2.860576
v 0.707107 0.000000 -2.736213
v 0.831470 0.000000 -2.584676
v 0.923880 0.000000 -2.411790
v 0.980785 0.000000 -2.224196
v 1.000000 0.000000 -2.029106
v 0.980785 0.000000 -1.834016
v 0.923880 0.000000 -1.646423
v 0.831470 0.000000 -1.473536
v 0.707107 0.000000 -1.321999
v 0.555570 0.000000 -1.197636
v 0.382683 0.000000 -1.105227
v 0.195090 0.000000 -1.048321
v -0.000000 0.000000 -1.029106
v -0.195091 0.000000 -1.048321
v -0.382684 0.000000 -1.105227
v -0.555571 0.000000 -1.197637
v -0.707107 0.000000 -1.322000
v -0.831470 0.000000 -1.473536
v -0.923880 0.000000 -1.646423
v -0.980785 0.000000 -1.834017
v -1.000000 0.000000 -2.029107
v -0.980785 0.000000 -2.224197
v -0.923879 0.000000 -2.411791
v -0.831469 0.000000 -2.584677
v -0.707106 0.000000 -2.736214
v -0.555569 0.000000 -2.860577
v -0.382682 0.000000 -2.952986
v -0.195089 0.000000 -3.009892
vt 0.270317 0.599579
vt 0.299839 0.299839
vt 0.329361 0.599579
vt 0.387270 0.588060
vt 0.441819 0.565465
vt 0.490912 0.532662
vt 0.532662 0.490912
vt 0.565465 0.441819
vt 0.588060 0.387270
vt 0.599579 0.329361
vt 0.599579 0.270317
vt 0.588060 0.212408
vt 0.565465 0.157859
vt 0.532662 0.108766
vt 0.490912 0.067016
vt 0.441819 0.034214
vt 0.387270 0.011619
vt 0.329361 0.000100
vt 0.270317 0.000100
vt 0.212408 0.011619
vt 0.157859 0.034214
vt 0.108767 0.067016
vt 0.067017 0.108767
vt 0.034214 0.157859
vt 0.011619 0.212409
vt 0.000100 0.270318
vt 0.000100 0.329361
vt 0.011619 0.387270
vt 0.034214 0.441819
vt 0.067017 0.490912
vt 0.108767 0.532662
vt 0.157860 0.565465
vt 0.212409 0.588060
vt 0.219865 0.599779
vt 0.258516 0.607467
vt 0.294925 0.622548
vt 0.327692 0.644442
vt 0.355558 0.672308
vt 0.377453 0.705075
vt 0.392534 0.741483
vt 0.400222 0.780135
vt 0.400222 0.819543
vt 0.392534 0.858194
vt 0.377453 0.894603
vt 0.355559 0.927370
vt 0.327693 0.955236
vt 0.294926 0.977130
vt 0.258517 0.992212
vt 0.219866 0.999900
vt 0.180457 0.999900
vt 0.141805 0.992212
vt 0.105396 0.977131
vt 0.072630 0.955236
vt 0.044763 0.927370
vt 0.022869 0.894603
vt 0.007788 0.858194
vt 0.000100 0.819543
vt 0.000100 0.780134
vt 0.007788 0.741483
vt 0.022869 0.705075
vt 0.044764 0.672308
vt 0.072630 0.644442
vt 0.105397 0.622548
vt 0.141806 0.607467
vt 0.180457 0.599779
vn 0.0878 0.4455 -0.8910
vn 0.2599 0.4455 -0.8567
vn 0.4220 0.4455 -0.7896
vn 0.5680 0.4455 -0.6921
vn 0.6921 0.4455 -0.5680
vn 0.7896 0.4455 -0.4220
vn 0.8567 0.4455 -0.2599
vn 0.8910 0.4455 -0.0878
vn 0.8910 0.4455 0.0878
vn 0.8567 0.4455 0.2599
vn 0.7896 0.4455 0.4220
vn 0.6921 0.4455 0.5680
vn 0.5680 0.4455 0.6921
vn 0.4220 0.4455 0.7896
vn 0.2599 0.4455 0.8567
vn 0.0878 0.4455 0.8910
vn -0.0878 0.4455 0.8910
vn -0.2599 0.4455 0.8567
vn -0.4220 0.4455 0.7896
vn -0.5680 0.4455 0.6921
vn -0.6921 0.4455 0.5680
vn -0.7896 0.4455 0.4220
vn -0.8567 0.4455 0.2599
vn -0.8910 0.4455 0.0878
vn -0.8910 0.4455 -0.0878
vn -0.8567 0.4455 -0.2599
vn -0.7896 0.4455 -0.4220
vn -0.6921 0.4455 -0.5680
vn -0.5680 0.4455 -0.6921
vn -0.4220 0.4455 -0.7896
vn -0.2599 0.4455 -0.8567
vn -0.0878 0.4455 -0.8910
vn 0.0000 -1.0000 0.0000
usemtl Material.004
s off
f 67/131/67 68/132/67 69/133/67
f 69/133/68 68/132/68 70/134/68
f 70/134/69 68/132/69 71/135/69
f 71/135/70 68/132/70 72/136/70
f 72/136/71 68/132/71 73/137/71
f 73/137/72 68/132/72 74/138/72
f 74/138/73 68/132/73 75/139/73
f 75/139/74 68/132/74 76/140/74
f 76/140/75 68/132/75 77/141/75
f 77/141/76 68/132/76 78/142/76
f 78/142/77 68/132/77 79/143/77
f 79/143/78 68/132/78 80/144/78
f 80/144/79 68/132/79 81/145/79
f 81/145/80 68/132/80 82/146/80
f 82/146/81 68/132/81 83/147/81
f 83/147/82 68/132/82 84/148/82
f 84/148/83 68/132/83 85/149/83
f 85/149/84 68/132/84 86/150/84
f 86/150/85 68/132/85 87/151/85
f 87/151/86 68/132/86 88/152/86
f 88/152/87 68/132/87 89/153/87
f 89/153/88 68/132/88 90/154/88
f 90/154/89 68/132/89 91/155/89
f 91/155/90 68/132/90 92/156/90
f 92/156/91 68/132/91 93/157/91
f 93/157/92 68/132/92 94/158/92
f 94/158/93 68/132/93 95/159/93
f 95/159/94 68/132/94 96/160/94
f 96/160/95 68/132/95 97/161/95
f 97/161/96 68/132/96 98/162/96
f 98/162/97 68/132/97 99/163/97
f 99/163/98 68/132/98 67/131/98
f 67/164/99 69/165/99 70/166/99 71/167/99 72/168/99 73/169/99 74/170/99 75/171/99 76/172/99 77/173/99 78/174/99 79/175/99 80/176/99 81/177/99 82/178/99 83/179/99 84/180/99 85/181/99 86/182/99 87/183/99 88/184/99 89/185/99 90/186/99 91/187/99 92/188/99 93/189/99 94/190/99 95/191/99 96/192/99 97/193/99 98/194/99 99/195/99
o cone3CyanWithVertexColorOverlay_Cone.002
v 0.000000 0.000000 -0.042641
v 0.000000 2.000000 0.957359
v 0.195090 0.000000 -0.023426
v 0.382683 0.000000 0.033480
v 0.555570 0.000000 0.125890
v 0.707107 0.000000 0.250253
v 0.831470 0.000000 0.401789
v 0.923880 0.000000 0.574676
v 0.980785 0.000000 0.762269
v 1.000000 0.000000 0.957359
v 0.980785 0.000000 1.152449
v 0.923880 0.000000 1.340043
v 0.831470 0.000000 1.512929
v 0.707107 0.000000 1.664466
v 0.555570 0.000000 1.788829
v 0.382683 0.000000 1.881239
v 0.195090 0.000000 1.938145
v -0.000000 0.000000 1.957359
v -0.195091 0.000000 1.938144
v -0.382684 0.000000 1.881239
v -0.555571 0.000000 1.788829
v -0.707107 0.000000 1.664466
v -0.831470 0.000000 1.512929
v -0.923880 0.000000 1.340042
v -0.980785 0.000000 1.152449
v -1.000000 0.000000 0.957358
v -0.980785 0.000000 0.762268
v -0.923879 0.000000 0.574675
v -0.831469 0.000000 0.401788
v -0.707106 0.000000 0.250252
v -0.555569 0.000000 0.125889
v -0.382682 0.000000 0.033479
v -0.195089 0.000000 -0.023426
vn 0.0878 0.4455 -0.8910
vn 0.2599 0.4455 -0.8567
vn 0.4220 0.4455 -0.7896
vn 0.5680 0.4455 -0.6921
vn 0.6921 0.4455 -0.5680
vn 0.7896 0.4455 -0.4220
vn 0.8567 0.4455 -0.2599
vn 0.8910 0.4455 -0.0878
vn 0.8910 0.4455 0.0878
vn 0.8567 0.4455 0.2599
vn 0.7896 0.4455 0.4220
vn 0.6921 0.4455 0.5680
vn 0.5680 0.4455 0.6921
vn 0.4220 0.4455 0.7896
vn 0.2599 0.4455 0.8567
vn 0.0878 0.4455 0.8910
vn -0.0878 0.4455 0.8910
vn -0.2599 0.4455 0.8567
vn -0.4220 0.4455 0.7896
vn -0.5680 0.4455 0.6921
vn -0.6921 0.4455 0.5680
vn -0.7896 0.4455 0.4220
vn -0.8567 0.4455 0.2599
vn -0.8910 0.4455 0.0878
vn -0.8910 0.4455 -0.0878
vn -0.8567 0.4455 -0.2599
vn -0.7896 0.4455 -0.4220
vn -0.6921 0.4455 -0.5680
vn -0.5680 0.4455 -0.6921
vn -0.4220 0.4455 -0.7896
vn -0.2599 0.4455 -0.8567
vn -0.0878 0.4455 -0.8910
vn 0.0000 -1.0000 0.0000
usemtl Material.003
s off
f 100//100 101//100 102//100
f 102//101 101//101 103//101
f 103//102 101//102 104//102
f 104//103 101//103 105//103
f 105//104 101//104 106//104
f 106//105 101//105 107//105
f 107//106 101//106 108//106
f 108//107 101//107 109//107
f 109//108 101//108 110//108
f 110//109 101//109 111//109
f 111//110 101//110 112//110
f 112//111 101//111 113//111
f 113//112 101//112 114//112
f 114//113 101//113 115//113
f 115//114 101//114 116//114
f 116//115 101//115 117//115
f 117//116 101//116 118//116
f 118//117 101//117 119//117
f 119//118 101//118 120//118
f 120//119 101//119 121//119
f 121//120 101//120 122//120
f 122//121 101//121 123//121
f 123//122 101//122 124//122
f 124//123 101//123 125//123
f 125//124 101//124 126//124
f 126//125 101//125 127//125
f 127//126 101//126 128//126
f 128//127 101//127 129//127
f 129//128 101//128 130//128
f 130//129 101//129 131//129
f 131//130 101//130 132//130
f 132//131 101//131 100//131
f 100//132 102//132 103//132 104//132 105//132 106//132 107//132 108//132 109//132 110//132 111//132 112//132 113//132 114//132 115//132 116//132 117//132 118//132 119//132 120//132 121//132 122//132 123//132 124//132 125//132 126//132 127//132 128//132 129//132 130//132 131//132 132//132
o cone2invisibleWithVertexColorOverlay_Cone.001
v 0.000000 0.000000 3.005487
v 0.000000 2.000000 4.005487
v 0.195090 0.000000 3.024702
v 0.382683 0.000000 3.081607
v 0.555570 0.000000 3.174017
v 0.707107 0.000000 3.298380
v 0.831470 0.000000 3.449917
v 0.923880 0.000000 3.622803
v 0.980785 0.000000 3.810397
v 1.000000 0.000000 4.005487
v 0.980785 0.000000 4.200577
v 0.923880 0.000000 4.388170
v 0.831470 0.000000 4.561057
v 0.707107 0.000000 4.712594
v 0.555570 0.000000 4.836957
v 0.382683 0.000000 4.929367
v 0.195090 0.000000 4.986272
v -0.000000 0.000000 5.005487
v -0.195091 0.000000 4.986272
v -0.382684 0.000000 4.929366
v -0.555571 0.000000 4.836956
v -0.707107 0.000000 4.712593
v -0.831470 0.000000 4.561057
v -0.923880 0.000000 4.388170
v -0.980785 0.000000 4.200576
v -1.000000 0.000000 4.005486
v -0.980785 0.000000 3.810396
v -0.923879 0.000000 3.622802
v -0.831469 0.000000 3.449916
v -0.707106 0.000000 3.298379
v -0.555569 0.000000 3.174016
v -0.382682 0.000000 3.081607
v -0.195089 0.000000 3.024701
vn 0.0878 0.4455 -0.8910
vn 0.2599 0.4455 -0.8567
vn 0.4220 0.4455 -0.7896
vn 0.5680 0.4455 -0.6921
vn 0.6921 0.4455 -0.5680
vn 0.7896 0.4455 -0.4220
vn 0.8567 0.4455 -0.2599
vn 0.8910 0.4455 -0.0878
vn 0.8910 0.4455 0.0878
vn 0.8567 0.4455 0.2599
vn 0.7896 0.4455 0.4220
vn 0.6921 0.4455 0.5680
vn 0.5680 0.4455 0.6921
vn 0.4220 0.4455 0.7896
vn 0.2599 0.4455 0.8567
vn 0.0878 0.4455 0.8910
vn -0.0878 0.4455 0.8910
vn -0.2599 0.4455 0.8567
vn -0.4220 0.4455 0.7896
vn -0.5680 0.4455 0.6921
vn -0.6921 0.4455 0.5680
vn -0.7896 0.4455 0.4220
vn -0.8567 0.4455 0.2599
vn -0.8910 0.4455 0.0878
vn -0.8910 0.4455 -0.0878
vn -0.8567 0.4455 -0.2599
vn -0.7896 0.4455 -0.4220
vn -0.6921 0.4455 -0.5680
vn -0.5680 0.4455 -0.6921
vn -0.4220 0.4455 -0.7896
vn -0.2599 0.4455 -0.8567
vn -0.0878 0.4455 -0.8910
vn 0.0000 -1.0000 0.0000
usemtl Material.002
s off
f 133//133 134//133 135//133
f 135//134 134//134 136//134
f 136//135 134//135 137//135
f 137//136 134//136 138//136
f 138//137 134//137 139//137
f 139//138 134//138 140//138
f 140//139 134//139 141//139
f 141//140 134//140 142//140
f 142//141 134//141 143//141
f 143//142 134//142 144//142
f 144//143 134//143 145//143
f 145//144 134//144 146//144
f 146//145 134//145 147//145
f 147//146 134//146 148//146
f 148//147 134//147 149//147
f 149//148 134//148 150//148
f 150//149 134//149 151//149
f 151//150 134//150 152//150
f 152//151 134//151 153//151
f 153//152 134//152 154//152
f 154//153 134//153 155//153
f 155//154 134//154 156//154
f 156//155 134//155 157//155
f 157//156 134//156 158//156
f 158//157 134//157 159//157
f 159//158 134//158 160//158
f 160//159 134//159 161//159
f 161//160 134//160 162//160
f 162//161 134//161 163//161
f 163//162 134//162 164//162
f 164//163 134//163 165//163
f 165//164 134//164 133//164
f 133//165 135//165 136//165 137//165 138//165 139//165 140//165 141//165 142//165 143//165 144//165 145//165 146//165 147//165 148//165 149//165 150//165 151//165 152//165 153//165 154//165 155//165 156//165 157//165 158//165 159//165 160//165 161//165 162//165 163//165 164//165 165//165
o cone1invisible_Cone
v 0.000000 0.000000 5.979112
v 0.000000 2.000000 6.979112
v 0.195090 0.000000 5.998326
v 0.382683 0.000000 6.055232
v 0.555570 0.000000 6.147642
v 0.707107 0.000000 6.272005
v 0.831470 0.000000 6.423542
v 0.923880 0.000000 6.596428
v 0.980785 0.000000 6.784021
v 1.000000 0.000000 6.979112
v 0.980785 0.000000 7.174202
v 0.923880 0.000000 7.361795
v 0.831470 0.000000 7.534682
v 0.707107 0.000000 7.686218
v 0.555570 0.000000 7.810581
v 0.382683 0.000000 7.902991
v 0.195090 0.000000 7.959897
v -0.000000 0.000000 7.979112
v -0.195091 0.000000 7.959897
v -0.382684 0.000000 7.902991
v -0.555571 0.000000 7.810581
v -0.707107 0.000000 7.686218
v -0.831470 0.000000 7.534681
v -0.923880 0.000000 7.361794
v -0.980785 0.000000 7.174201
v -1.000000 0.000000 6.979111
v -0.980785 0.000000 6.784020
v -0.923879 0.000000 6.596427
v -0.831469 0.000000 6.423541
v -0.707106 0.000000 6.272004
v -0.555569 0.000000 6.147641
v -0.382682 0.000000 6.055232
v -0.195089 0.000000 5.998326
vn 0.0878 0.4455 -0.8910
vn 0.2599 0.4455 -0.8567
vn 0.4220 0.4455 -0.7896
vn 0.5680 0.4455 -0.6921
vn 0.6921 0.4455 -0.5680
vn 0.7896 0.4455 -0.4220
vn 0.8567 0.4455 -0.2599
vn 0.8910 0.4455 -0.0878
vn 0.8910 0.4455 0.0878
vn 0.8567 0.4455 0.2599
vn 0.7896 0.4455 0.4220
vn 0.6921 0.4455 0.5680
vn 0.5680 0.4455 0.6921
vn 0.4220 0.4455 0.7896
vn 0.2599 0.4455 0.8567
vn 0.0878 0.4455 0.8910
vn -0.0878 0.4455 0.8910
vn -0.2599 0.4455 0.8567
vn -0.4220 0.4455 0.7896
vn -0.5680 0.4455 0.6921
vn -0.6921 0.4455 0.5680
vn -0.7896 0.4455 0.4220
vn -0.8567 0.4455 0.2599
vn -0.8910 0.4455 0.0878
vn -0.8910 0.4455 -0.0878
vn -0.8567 0.4455 -0.2599
vn -0.7896 0.4455 -0.4220
vn -0.6921 0.4455 -0.5680
vn -0.5680 0.4455 -0.6921
vn -0.4220 0.4455 -0.7896
vn -0.2599 0.4455 -0.8567
vn -0.0878 0.4455 -0.8910
vn 0.0000 -1.0000 0.0000
usemtl Material.001
s off
f 166//166 167//166 168//166
f 168//167 167//167 169//167
f 169//168 167//168 170//168
f 170//169 167//169 171//169
f 171//170 167//170 172//170
f 172//171 167//171 173//171
f 173//172 167//172 174//172
f 174//173 167//173 175//173
f 175//174 167//174 176//174
f 176//175 167//175 177//175
f 177//176 167//176 178//176
f 178//177 167//177 179//177
f 179//178 167//178 180//178
f 180//179 167//179 181//179
f 181//180 167//180 182//180
f 182//181 167//181 183//181
f 183//182 167//182 184//182
f 184//183 167//183 185//183
f 185//184 167//184 186//184
f 186//185 167//185 187//185
f 187//186 167//186 188//186
f 188//187 167//187 189//187
f 189//188 167//188 190//188
f 190//189 167//189 191//189
f 191//190 167//190 192//190
f 192//191 167//191 193//191
f 193//192 167//192 194//192
f 194//193 167//193 195//193
f 195//194 167//194 196//194
f 196//195 167//195 197//195
f 197//196 167//196 198//196
f 198//197 167//197 166//197
f 166//198 168//198 169//198 170//198 171//198 172//198 173//198 174//198 175//198 176//198 177//198 178//198 179//198 180//198 181//198 182//198 183//198 184//198 185//198 186//198 187//198 188//198 189//198 190//198 191//198 192//198 193//198 194//198 195//198 196//198 197//198 198//198
